<svg xmlns="http://www.w3.org/2000/svg" xmlns:xlink="http://www.w3.org/1999/xlink" xmlns:inkscape="http://www.inkscape.org/namespaces/inkscape" version="1.1" width="107.329" height="51.265" viewBox="0 0 107.329 51.265">
<path transform="matrix(1,0,0,-1,53.665,38.442)" d="M10.0491 0C10.0491 5.55003 5.55003 10.0491 0 10.0491-5.55003 10.0491-10.0491 5.55003-10.0491 0-10.0491-5.55003-5.55003-10.0491 0-10.0491 5.55003-10.0491 10.0491-5.55003 10.0491 0ZM0 0" fill="#ffffff"/>
<path transform="matrix(1,0,0,-1,53.665,38.442)" stroke-width=".79701" stroke-linecap="butt" stroke-miterlimit="10" stroke-linejoin="miter" fill="none" stroke="#000000" d="M10.0491 0C10.0491 5.55003 5.55003 10.0491 0 10.0491-5.55003 10.0491-10.0491 5.55003-10.0491 0-10.0491-5.55003-5.55003-10.0491 0-10.0491 5.55003-10.0491 10.0491-5.55003 10.0491 0ZM0 0"/>
<text xml:space="preserve" transform="matrix(1 0 -0 1 0 51.265)" font-size="9.9626" font-family="Computer Modern" font-style="italic"><tspan y="-11.426" x="49.095">s</tspan></text>
<text xml:space="preserve" transform="matrix(1 0 -0 1 0 51.265)" font-size="6.9738" font-family="Computer Modern"><tspan y="-9.931" x="53.765">0</tspan></text>
<path transform="matrix(1,0,0,-1,53.665,38.442)" d="M-32.4711 0C-32.4711 5.55003-36.97017 10.0491-42.52022 10.0491-48.07027 10.0491-52.56934 5.55003-52.56934 0-52.56934-5.55003-48.07027-10.0491-42.52022-10.0491-36.97017-10.0491-32.4711-5.55003-32.4711 0ZM-42.52022 0" fill="#ffffff"/>
<path transform="matrix(1,0,0,-1,53.665,38.442)" stroke-width="2.19182" stroke-linecap="butt" stroke-miterlimit="10" stroke-linejoin="miter" fill="none" stroke="#000000" d="M-32.4711 0C-32.4711 5.55003-36.97017 10.0491-42.52022 10.0491-48.07027 10.0491-52.56934 5.55003-52.56934 0-52.56934-5.55003-48.07027-10.0491-42.52022-10.0491-36.97017-10.0491-32.4711-5.55003-32.4711 0ZM-42.52022 0"/>
<path transform="matrix(1,0,0,-1,53.665,38.442)" stroke-width=".59776" stroke-linecap="butt" stroke-miterlimit="10" stroke-linejoin="miter" fill="none" stroke="#ffffff" d="M-32.4711 0C-32.4711 5.55003-36.97017 10.0491-42.52022 10.0491-48.07027 10.0491-52.56934 5.55003-52.56934 0-52.56934-5.55003-48.07027-10.0491-42.52022-10.0491-36.97017-10.0491-32.4711-5.55003-32.4711 0ZM-42.52022 0"/>
<text xml:space="preserve" transform="matrix(1 0 -0 1 .0000009536743 51.265)" font-size="9.9626" font-family="Computer Modern" font-style="italic"><tspan y="-11.426" x="6.575">s</tspan></text>
<text xml:space="preserve" transform="matrix(1 0 -0 1 .0000009536743 51.265)" font-size="6.9738" font-family="Computer Modern"><tspan y="-9.931" x="11.245">1</tspan></text>
<path transform="matrix(1,0,0,-1,53.665,38.442)" d="M52.56934 0C52.56934 5.55003 48.07027 10.0491 42.52022 10.0491 36.97017 10.0491 32.4711 5.55003 32.4711 0 32.4711-5.55003 36.97017-10.0491 42.52022-10.0491 48.07027-10.0491 52.56934-5.55003 52.56934 0ZM42.52022 0" fill="#ffffff"/>
<path transform="matrix(1,0,0,-1,53.665,38.442)" stroke-width="2.19182" stroke-linecap="butt" stroke-miterlimit="10" stroke-linejoin="miter" fill="none" stroke="#000000" d="M52.56934 0C52.56934 5.55003 48.07027 10.0491 42.52022 10.0491 36.97017 10.0491 32.4711 5.55003 32.4711 0 32.4711-5.55003 36.97017-10.0491 42.52022-10.0491 48.07027-10.0491 52.56934-5.55003 52.56934 0ZM42.52022 0"/>
<path transform="matrix(1,0,0,-1,53.665,38.442)" stroke-width=".59776" stroke-linecap="butt" stroke-miterlimit="10" stroke-linejoin="miter" fill="none" stroke="#ffffff" d="M52.56934 0C52.56934 5.55003 48.07027 10.0491 42.52022 10.0491 36.97017 10.0491 32.4711 5.55003 32.4711 0 32.4711-5.55003 36.97017-10.0491 42.52022-10.0491 48.07027-10.0491 52.56934-5.55003 52.56934 0ZM42.52022 0"/>
<text xml:space="preserve" transform="matrix(1 0 -0 1 .0000076293949 51.265)" font-size="9.9626" font-family="Computer Modern" font-style="italic"><tspan y="-11.426" x="91.615">s</tspan></text>
<text xml:space="preserve" transform="matrix(1 0 -0 1 .0000076293949 51.265)" font-size="6.9738" font-family="Computer Modern"><tspan y="-9.931" x="96.284999">2</tspan></text>
<path transform="matrix(1,0,0,-1,53.665,38.442)" stroke-width=".79701" stroke-linecap="butt" stroke-miterlimit="10" stroke-linejoin="miter" fill="none" stroke="#000000" d=""/>
<path transform="matrix(1,0,0,-1,53.665,38.442)" stroke-width=".79701" stroke-linecap="butt" stroke-miterlimit="10" stroke-linejoin="miter" fill="none" stroke="#000000" d="M-5.22363 9.04776C-17.97946 31.14197 17.97946 31.14197 7.18674 12.448"/>
<path transform="matrix(-.49998,.86601,.86601,.49998,61.97738,24.04433)" d="M4.78288 0 1.28693 1.32402 2.45058 0 1.28693-1.32402Z"/>
<path transform="matrix(-.49998,.86601,.86601,.49998,61.97738,24.04433)" stroke-width=".79701" stroke-linecap="butt" stroke-linejoin="round" fill="none" stroke="#000000" d="M4.78288 0 1.28693 1.32402 2.45058 0 1.28693-1.32402Z"/>
<text xml:space="preserve" transform="matrix(1 0 -0 1 0 51.265)" font-size="9.9626" font-family="Computer Modern" font-style="italic"><tspan y="-43.655" x="48.797">a</tspan></text>
<text xml:space="preserve" transform="matrix(1 0 -0 1 0 51.265)" font-size="6.9738" font-family="Computer Modern"><tspan y="-42.16" x="54.063">0</tspan></text>
<path transform="matrix(1,0,0,-1,53.665,38.442)" stroke-width=".79701" stroke-linecap="butt" stroke-miterlimit="10" stroke-linejoin="miter" fill="none" stroke="#000000" d=""/>
<path transform="matrix(1,0,0,-1,53.665,38.442)" stroke-width=".79701" stroke-linecap="butt" stroke-miterlimit="10" stroke-linejoin="miter" fill="none" stroke="#000000" d="M-10.44762 0C-18.76408 0-23.45724 0-27.84737 0"/>
<path transform="matrix(-1,-0,0,1,28.06896,38.442)" d="M4.78288 0 1.28693 1.32402 2.45058 0 1.28693-1.32402Z"/>
<path transform="matrix(-1,-0,0,1,28.06896,38.442)" stroke-width=".79701" stroke-linecap="butt" stroke-linejoin="round" fill="none" stroke="#000000" d="M4.78288 0 1.28693 1.32402 2.45058 0 1.28693-1.32402Z"/>
<text xml:space="preserve" transform="matrix(1 0 -0 1 0 51.265)" font-size="9.9626" font-family="Computer Modern" font-style="italic"><tspan y="-4.815" x="27.686">a</tspan></text>
<text xml:space="preserve" transform="matrix(1 0 -0 1 0 51.265)" font-size="6.9738" font-family="Computer Modern"><tspan y="-3.321" x="32.953004">1</tspan></text>
<path transform="matrix(1,0,0,-1,53.665,38.442)" stroke-width=".79701" stroke-linecap="butt" stroke-miterlimit="10" stroke-linejoin="miter" fill="none" stroke="#000000" d=""/>
<path transform="matrix(1,0,0,-1,53.665,38.442)" stroke-width=".79701" stroke-linecap="butt" stroke-miterlimit="10" stroke-linejoin="miter" fill="none" stroke="#000000" d="M10.44762 0C18.76408 0 23.45724 0 27.84737 0"/>
<path transform="matrix(1,0,0,-1,79.26104,38.442)" d="M4.78288 0 1.28693 1.32402 2.45058 0 1.28693-1.32402Z"/>
<path transform="matrix(1,0,0,-1,79.26104,38.442)" stroke-width=".79701" stroke-linecap="butt" stroke-linejoin="round" fill="none" stroke="#000000" d="M4.78288 0 1.28693 1.32402 2.45058 0 1.28693-1.32402Z"/>
<text xml:space="preserve" transform="matrix(1 0 -0 1 0 51.265)" font-size="9.9626" font-family="Computer Modern" font-style="italic"><tspan y="-4.815" x="69.907">a</tspan></text>
<text xml:space="preserve" transform="matrix(1 0 -0 1 0 51.265)" font-size="6.9738" font-family="Computer Modern"><tspan y="-3.321" x="75.173">2</tspan></text>
</svg>
