<svg xmlns="http://www.w3.org/2000/svg" xmlns:xlink="http://www.w3.org/1999/xlink" xmlns:inkscape="http://www.inkscape.org/namespaces/inkscape" version="1.1" width="146.275" height="131.885" viewBox="0 0 146.275 131.885">
<path transform="matrix(1,0,0,-1,73.137,72.826)" d="M10.0491 34.01608C10.0491 39.56612 5.55003 44.06519 0 44.06519-5.55003 44.06519-10.0491 39.56612-10.0491 34.01608-10.0491 28.46603-5.55003 23.96696 0 23.96696 5.55003 23.96696 10.0491 28.46603 10.0491 34.01608ZM0 34.01608" fill="#ffffff"/>
<path transform="matrix(1,0,0,-1,73.137,72.826)" stroke-width=".79701" stroke-linecap="butt" stroke-miterlimit="10" stroke-linejoin="miter" fill="none" stroke="#000000" d="M10.0491 34.01608C10.0491 39.56612 5.55003 44.06519 0 44.06519-5.55003 44.06519-10.0491 39.56612-10.0491 34.01608-10.0491 28.46603-5.55003 23.96696 0 23.96696 5.55003 23.96696 10.0491 28.46603 10.0491 34.01608ZM0 34.01608"/>
<text xml:space="preserve" transform="matrix(1 0 -0 1 0 131.885)" font-size="9.9626" font-family="Computer Modern" font-style="italic"><tspan y="-91.677" x="68.568">s</tspan></text>
<text xml:space="preserve" transform="matrix(1 0 -0 1 0 131.885)" font-size="6.9738" font-family="Computer Modern"><tspan y="-90.183" x="73.238">0</tspan></text>
<path transform="matrix(1,0,0,-1,73.137,72.826)" d="M42.40034 10.51152C42.40034 16.06157 37.90128 20.56064 32.35123 20.56064 26.8012 20.56064 22.30211 16.06157 22.30211 10.51152 22.30211 4.96147 26.8012 .4624 32.35123 .4624 37.90128 .4624 42.40034 4.96147 42.40034 10.51152ZM32.35123 10.51152" fill="#ffffff"/>
<path transform="matrix(1,0,0,-1,73.137,72.826)" stroke-width=".79701" stroke-linecap="butt" stroke-miterlimit="10" stroke-linejoin="miter" fill="none" stroke="#000000" d="M42.40034 10.51152C42.40034 16.06157 37.90128 20.56064 32.35123 20.56064 26.8012 20.56064 22.30211 16.06157 22.30211 10.51152 22.30211 4.96147 26.8012 .4624 32.35123 .4624 37.90128 .4624 42.40034 4.96147 42.40034 10.51152ZM32.35123 10.51152"/>
<text xml:space="preserve" transform="matrix(1 0 -0 1 0 131.885)" font-size="9.9626" font-family="Computer Modern" font-style="italic"><tspan y="-68.173" x="100.918">s</tspan></text>
<text xml:space="preserve" transform="matrix(1 0 -0 1 0 131.885)" font-size="6.9738" font-family="Computer Modern"><tspan y="-66.67899" x="105.588">1</tspan></text>
<path transform="matrix(1,0,0,-1,73.137,72.826)" d="M30.04318-27.51935C30.04318-21.9693 25.5441-17.47023 19.99406-17.47023 14.44402-17.47023 9.94495-21.9693 9.94495-27.51935 9.94495-33.06938 14.44402-37.56847 19.99406-37.56847 25.5441-37.56847 30.04318-33.06938 30.04318-27.51935ZM19.99406-27.51935" fill="#ffffff"/>
<path transform="matrix(1,0,0,-1,73.137,72.826)" stroke-width=".79701" stroke-linecap="butt" stroke-miterlimit="10" stroke-linejoin="miter" fill="none" stroke="#000000" d="M30.04318-27.51935C30.04318-21.9693 25.5441-17.47023 19.99406-17.47023 14.44402-17.47023 9.94495-21.9693 9.94495-27.51935 9.94495-33.06938 14.44402-37.56847 19.99406-37.56847 25.5441-37.56847 30.04318-33.06938 30.04318-27.51935ZM19.99406-27.51935"/>
<text xml:space="preserve" transform="matrix(1 0 -0 1 .0000076293949 131.885)" font-size="9.9626" font-family="Computer Modern" font-style="italic"><tspan y="-30.143" x="88.561">s</tspan></text>
<text xml:space="preserve" transform="matrix(1 0 -0 1 .0000076293949 131.885)" font-size="6.9738" font-family="Computer Modern"><tspan y="-28.647999" x="93.230998">2</tspan></text>
<path transform="matrix(1,0,0,-1,73.137,72.826)" d="M-9.94495-27.51935C-9.94495-21.9693-14.44402-17.47023-19.99406-17.47023-25.5441-17.47023-30.04318-21.9693-30.04318-27.51935-30.04318-33.06938-25.5441-37.56847-19.99406-37.56847-14.44402-37.56847-9.94495-33.06938-9.94495-27.51935ZM-19.99406-27.51935" fill="#ffffff"/>
<path transform="matrix(1,0,0,-1,73.137,72.826)" stroke-width=".79701" stroke-linecap="butt" stroke-miterlimit="10" stroke-linejoin="miter" fill="none" stroke="#000000" d="M-9.94495-27.51935C-9.94495-21.9693-14.44402-17.47023-19.99406-17.47023-25.5441-17.47023-30.04318-21.9693-30.04318-27.51935-30.04318-33.06938-25.5441-37.56847-19.99406-37.56847-14.44402-37.56847-9.94495-33.06938-9.94495-27.51935ZM-19.99406-27.51935"/>
<text xml:space="preserve" transform="matrix(1 0 -0 1 0 131.885)" font-size="9.9626" font-family="Computer Modern" font-style="italic"><tspan y="-30.143" x="48.574">s</tspan></text>
<text xml:space="preserve" transform="matrix(1 0 -0 1 0 131.885)" font-size="6.9738" font-family="Computer Modern"><tspan y="-28.647999" x="53.244005">3</tspan></text>
<path transform="matrix(1,0,0,-1,73.137,72.826)" d="M-22.30211 10.51152C-22.30211 16.06157-26.8012 20.56064-32.35123 20.56064-37.90128 20.56064-42.40034 16.06157-42.40034 10.51152-42.40034 4.96147-37.90128 .4624-32.35123 .4624-26.8012 .4624-22.30211 4.96147-22.30211 10.51152ZM-32.35123 10.51152" fill="#ffffff"/>
<path transform="matrix(1,0,0,-1,73.137,72.826)" stroke-width=".79701" stroke-linecap="butt" stroke-miterlimit="10" stroke-linejoin="miter" fill="none" stroke="#000000" d="M-22.30211 10.51152C-22.30211 16.06157-26.8012 20.56064-32.35123 20.56064-37.90128 20.56064-42.40034 16.06157-42.40034 10.51152-42.40034 4.96147-37.90128 .4624-32.35123 .4624-26.8012 .4624-22.30211 4.96147-22.30211 10.51152ZM-32.35123 10.51152"/>
<text xml:space="preserve" transform="matrix(1 0 -0 1 .0000038146974 131.885)" font-size="9.9626" font-family="Computer Modern" font-style="italic"><tspan y="-68.173" x="36.217">s</tspan></text>
<text xml:space="preserve" transform="matrix(1 0 -0 1 .0000038146974 131.885)" font-size="6.9738" font-family="Computer Modern"><tspan y="-66.67899" x="40.887">4</tspan></text>
<path transform="matrix(1,0,0,-1,73.137,72.826)" stroke-width=".79701" stroke-linecap="butt" stroke-miterlimit="10" stroke-linejoin="miter" fill="none" stroke="#000000" d=""/>
<path transform="matrix(1,0,0,-1,73.137,72.826)" stroke-width=".79701" stroke-linecap="butt" stroke-miterlimit="10" stroke-linejoin="miter" fill="none" stroke="#000000" d="M7.25732 26.50096C12.53899 21.03168 16.12752 18.42455 19.43231 16.81256"/>
<path transform="matrix(.89877,.43835,.43835,-.89877,90.54587,55.026559)" d="M4.78288 0 1.28693 1.32402 2.45058 0 1.28693-1.32402Z"/>
<path transform="matrix(.89877,.43835,.43835,-.89877,90.54587,55.026559)" stroke-width=".79701" stroke-linecap="butt" stroke-linejoin="round" fill="none" stroke="#000000" d="M4.78288 0 1.28693 1.32402 2.45058 0 1.28693-1.32402Z"/>
<text xml:space="preserve" transform="matrix(1 0 -0 1 0 131.885)" font-size="9.9626" font-family="Computer Modern" font-style="italic"><tspan y="-71.02" x="77.975">a</tspan></text>
<text xml:space="preserve" transform="matrix(1 0 -0 1 0 131.885)" font-size="6.9738" font-family="Computer Modern"><tspan y="-69.524997" x="83.241">0</tspan></text>
<path transform="matrix(1,0,0,-1,73.137,72.826)" stroke-width=".79701" stroke-linecap="butt" stroke-miterlimit="10" stroke-linejoin="miter" fill="none" stroke="#000000" d=""/>
<path transform="matrix(1,0,0,-1,73.137,72.826)" stroke-width=".79701" stroke-linecap="butt" stroke-miterlimit="10" stroke-linejoin="miter" fill="none" stroke="#000000" d="M27.4466 1.28696C23.88676-5.40807 22.50348-9.66481 21.99454-13.28555"/>
<path transform="matrix(-.13918,.99025,.99025,.13918,95.44486,83.882167)" d="M4.78288 0 1.28693 1.32402 2.45058 0 1.28693-1.32402Z"/>
<path transform="matrix(-.13918,.99025,.99025,.13918,95.44486,83.882167)" stroke-width=".79701" stroke-linecap="butt" stroke-linejoin="round" fill="none" stroke="#000000" d="M4.78288 0 1.28693 1.32402 2.45058 0 1.28693-1.32402Z"/>
<text xml:space="preserve" transform="matrix(1 0 -0 1 0 131.885)" font-size="9.9626" font-family="Computer Modern" font-style="italic"><tspan y="-52.559" x="83.973">a</tspan></text>
<text xml:space="preserve" transform="matrix(1 0 -0 1 0 131.885)" font-size="6.9738" font-family="Computer Modern"><tspan y="-51.065" x="89.239">0</tspan></text>
<path transform="matrix(1,0,0,-1,73.137,72.826)" stroke-width=".79701" stroke-linecap="butt" stroke-miterlimit="10" stroke-linejoin="miter" fill="none" stroke="#000000" d=""/>
<path transform="matrix(1,0,0,-1,73.137,72.826)" stroke-width=".79701" stroke-linecap="butt" stroke-miterlimit="10" stroke-linejoin="miter" fill="none" stroke="#000000" d="M9.70523-25.70534C2.25072-24.39095-2.25072-24.39095-5.83858-25.02362"/>
<path transform="matrix(-.9848,.17363,.17363,.9848,69.51554,97.45872)" d="M4.78288 0 1.28693 1.32402 2.45058 0 1.28693-1.32402Z"/>
<path transform="matrix(-.9848,.17363,.17363,.9848,69.51554,97.45872)" stroke-width=".79701" stroke-linecap="butt" stroke-linejoin="round" fill="none" stroke="#000000" d="M4.78288 0 1.28693 1.32402 2.45058 0 1.28693-1.32402Z"/>
<text xml:space="preserve" transform="matrix(1 0 -0 1 .0000076293949 131.88501)" font-size="9.9626" font-family="Computer Modern" font-style="italic"><tspan y="-41.15" x="68.27">a</tspan></text>
<text xml:space="preserve" transform="matrix(1 0 -0 1 .0000076293949 131.88501)" font-size="6.9738" font-family="Computer Modern"><tspan y="-39.656003" x="73.535999">0</tspan></text>
<path transform="matrix(1,0,0,-1,73.137,72.826)" stroke-width=".79701" stroke-linecap="butt" stroke-miterlimit="10" stroke-linejoin="miter" fill="none" stroke="#000000" d=""/>
<path transform="matrix(1,0,0,-1,73.137,72.826)" stroke-width=".79701" stroke-linecap="butt" stroke-miterlimit="10" stroke-linejoin="miter" fill="none" stroke="#000000" d="M-21.4481-17.17358C-22.50348-9.66481-23.88676-5.40807-25.60336-2.17972"/>
<path transform="matrix(-.46945,-.88293,-.88293,.46945,48.5905,76.9935)" d="M4.78288 0 1.28693 1.32402 2.45058 0 1.28693-1.32402Z"/>
<path transform="matrix(-.46945,-.88293,-.88293,.46945,48.5905,76.9935)" stroke-width=".79701" stroke-linecap="butt" stroke-linejoin="round" fill="none" stroke="#000000" d="M4.78288 0 1.28693 1.32402 2.45058 0 1.28693-1.32402Z"/>
<text xml:space="preserve" transform="matrix(1 0 -0 1 0 131.885)" font-size="9.9626" font-family="Computer Modern" font-style="italic"><tspan y="-52.559" x="52.566">a</tspan></text>
<text xml:space="preserve" transform="matrix(1 0 -0 1 0 131.885)" font-size="6.9738" font-family="Computer Modern"><tspan y="-51.065" x="57.832">0</tspan></text>
<path transform="matrix(1,0,0,-1,73.137,72.826)" stroke-width=".79701" stroke-linecap="butt" stroke-miterlimit="10" stroke-linejoin="miter" fill="none" stroke="#000000" d=""/>
<path transform="matrix(1,0,0,-1,73.137,72.826)" stroke-width=".79701" stroke-linecap="butt" stroke-miterlimit="10" stroke-linejoin="miter" fill="none" stroke="#000000" d="M-22.9612 15.09143C-16.12752 18.42455-12.53899 21.03168-9.98471 23.67657"/>
<path transform="matrix(.69464,-.71935,-.71935,-.69464,61.58842,50.768899)" d="M4.78288 0 1.28693 1.32402 2.45058 0 1.28693-1.32402Z"/>
<path transform="matrix(.69464,-.71935,-.71935,-.69464,61.58842,50.768899)" stroke-width=".79701" stroke-linecap="butt" stroke-linejoin="round" fill="none" stroke="#000000" d="M4.78288 0 1.28693 1.32402 2.45058 0 1.28693-1.32402Z"/>
<text xml:space="preserve" transform="matrix(1 0 -0 1 .0000038146974 131.885)" font-size="9.9626" font-family="Computer Modern" font-style="italic"><tspan y="-71.02" x="58.564">a</tspan></text>
<text xml:space="preserve" transform="matrix(1 0 -0 1 .0000038146974 131.885)" font-size="6.9738" font-family="Computer Modern"><tspan y="-69.524997" x="63.829999">0</tspan></text>
<path transform="matrix(1,0,0,-1,73.137,72.826)" stroke-width=".79701" stroke-linecap="butt" stroke-dasharray="2.98883,2.98883" stroke-miterlimit="10" stroke-linejoin="miter" fill="none" stroke="#000000" d=""/>
<path transform="matrix(1,0,0,-1,73.137,72.826)" stroke-width=".79701" stroke-linecap="butt" stroke-dasharray="2.98883,2.98883" stroke-miterlimit="10" stroke-linejoin="miter" fill="none" stroke="#000000" d="M25.0939 18.02664C19.81224 23.49593 16.22371 26.10306 12.91891 27.71504"/>
<path transform="matrix(-.89877,-.43835,-.43835,.89877,88.07935,46.097848)" d="M4.78288 0 1.28693 1.32402 2.45058 0 1.28693-1.32402Z"/>
<path transform="matrix(-.89877,-.43835,-.43835,.89877,88.07935,46.097848)" stroke-width=".79701" stroke-linecap="butt" stroke-linejoin="round" fill="none" stroke="#000000" d="M4.78288 0 1.28693 1.32402 2.45058 0 1.28693-1.32402Z"/>
<text xml:space="preserve" transform="matrix(1 0 -0 1 0 131.885)" font-size="9.9626" font-family="Computer Modern" font-style="italic"><tspan y="-87.717" x="90.106">a</tspan></text>
<text xml:space="preserve" transform="matrix(1 0 -0 1 0 131.885)" font-size="6.9738" font-family="Computer Modern"><tspan y="-86.223" x="95.373">1</tspan></text>
<path transform="matrix(1,0,0,-1,73.137,72.826)" stroke-width=".79701" stroke-linecap="butt" stroke-dasharray="2.98883,2.98883" stroke-miterlimit="10" stroke-linejoin="miter" fill="none" stroke="#000000" d=""/>
<path transform="matrix(1,0,0,-1,73.137,72.826)" stroke-width=".79701" stroke-linecap="butt" stroke-dasharray="2.98883,2.98883" stroke-miterlimit="10" stroke-linejoin="miter" fill="none" stroke="#000000" d="M24.89871-18.29478C28.45853-11.59975 29.84181-7.34299 30.35075-3.72226"/>
<path transform="matrix(.13918,-.99025,-.99025,-.13918,103.17443,78.77763)" d="M4.78288 0 1.28693 1.32402 2.45058 0 1.28693-1.32402Z"/>
<path transform="matrix(.13918,-.99025,-.99025,-.13918,103.17443,78.77763)" stroke-width=".79701" stroke-linecap="butt" stroke-linejoin="round" fill="none" stroke="#000000" d="M4.78288 0 1.28693 1.32402 2.45058 0 1.28693-1.32402Z"/>
<text xml:space="preserve" transform="matrix(1 0 -0 1 .0000076293949 131.885)" font-size="9.9626" font-family="Computer Modern" font-style="italic"><tspan y="-46.181" x="103.602">a</tspan></text>
<text xml:space="preserve" transform="matrix(1 0 -0 1 .0000076293949 131.885)" font-size="6.9738" font-family="Computer Modern"><tspan y="-44.687" x="108.868">1</tspan></text>
<path transform="matrix(1,0,0,-1,73.137,72.826)" stroke-width=".79701" stroke-linecap="butt" stroke-dasharray="2.98883,2.98883" stroke-miterlimit="10" stroke-linejoin="miter" fill="none" stroke="#000000" d=""/>
<path transform="matrix(1,0,0,-1,73.137,72.826)" stroke-width=".79701" stroke-linecap="butt" stroke-dasharray="2.98883,2.98883" stroke-miterlimit="10" stroke-linejoin="miter" fill="none" stroke="#000000" d="M-9.70523-29.33334C-2.25072-30.64775 2.25072-30.64775 5.83858-30.01506"/>
<path transform="matrix(.9848,-.17363,-.17363,-.9848,76.75846,103.23198)" d="M4.78288 0 1.28693 1.32402 2.45058 0 1.28693-1.32402Z"/>
<path transform="matrix(.9848,-.17363,-.17363,-.9848,76.75846,103.23198)" stroke-width=".79701" stroke-linecap="butt" stroke-linejoin="round" fill="none" stroke="#000000" d="M4.78288 0 1.28693 1.32402 2.45058 0 1.28693-1.32402Z"/>
<text xml:space="preserve" transform="matrix(1 0 -0 1 .0000076293949 131.885)" font-size="9.9626" font-family="Computer Modern" font-style="italic"><tspan y="-20.511" x="68.27">a</tspan></text>
<text xml:space="preserve" transform="matrix(1 0 -0 1 .0000076293949 131.885)" font-size="6.9738" font-family="Computer Modern"><tspan y="-19.015999" x="73.535999">1</tspan></text>
<path transform="matrix(1,0,0,-1,73.137,72.826)" stroke-width=".79701" stroke-linecap="butt" stroke-dasharray="2.98883,2.98883" stroke-miterlimit="10" stroke-linejoin="miter" fill="none" stroke="#000000" d=""/>
<path transform="matrix(1,0,0,-1,73.137,72.826)" stroke-width=".79701" stroke-linecap="butt" stroke-dasharray="2.98883,2.98883" stroke-miterlimit="10" stroke-linejoin="miter" fill="none" stroke="#000000" d="M-30.89719 .16577C-29.84181-7.34299-28.45853-11.59975-26.74193-14.8281"/>
<path transform="matrix(.46945,.88293,.88293,-.46945,45.338205,85.66631)" d="M4.78288 0 1.28693 1.32402 2.45058 0 1.28693-1.32402Z"/>
<path transform="matrix(.46945,.88293,.88293,-.46945,45.338205,85.66631)" stroke-width=".79701" stroke-linecap="butt" stroke-linejoin="round" fill="none" stroke="#000000" d="M4.78288 0 1.28693 1.32402 2.45058 0 1.28693-1.32402Z"/>
<text xml:space="preserve" transform="matrix(1 0 -0 1 0 131.885)" font-size="9.9626" font-family="Computer Modern" font-style="italic"><tspan y="-46.181" x="32.937">a</tspan></text>
<text xml:space="preserve" transform="matrix(1 0 -0 1 0 131.885)" font-size="6.9738" font-family="Computer Modern"><tspan y="-44.687" x="38.203">1</tspan></text>
<path transform="matrix(1,0,0,-1,73.137,72.826)" stroke-width=".79701" stroke-linecap="butt" stroke-dasharray="2.98883,2.98883" stroke-miterlimit="10" stroke-linejoin="miter" fill="none" stroke="#000000" d=""/>
<path transform="matrix(1,0,0,-1,73.137,72.826)" stroke-width=".79701" stroke-linecap="butt" stroke-dasharray="2.98883,2.98883" stroke-miterlimit="10" stroke-linejoin="miter" fill="none" stroke="#000000" d="M-9.39003 29.43616C-16.22371 26.10306-19.81224 23.49593-22.36652 20.85103"/>
<path transform="matrix(-.69464,.71935,.71935,.69464,52.33436,50.355508)" d="M4.78288 0 1.28693 1.32402 2.45058 0 1.28693-1.32402Z"/>
<path transform="matrix(-.69464,.71935,.71935,.69464,52.33436,50.355508)" stroke-width=".79701" stroke-linecap="butt" stroke-linejoin="round" fill="none" stroke="#000000" d="M4.78288 0 1.28693 1.32402 2.45058 0 1.28693-1.32402Z"/>
<text xml:space="preserve" transform="matrix(1 0 -0 1 0 131.885)" font-size="9.9626" font-family="Computer Modern" font-style="italic"><tspan y="-87.717" x="46.433">a</tspan></text>
<text xml:space="preserve" transform="matrix(1 0 -0 1 0 131.885)" font-size="6.9738" font-family="Computer Modern"><tspan y="-86.223" x="51.698999">1</tspan></text>
<path transform="matrix(1,0,0,-1,73.137,72.826)" stroke-width=".79701" stroke-linecap="butt" stroke-dasharray="2.98883,2.98883" stroke-miterlimit="10" stroke-linejoin="miter" fill="none" stroke="#000000" d=""/>
<path transform="matrix(1,0,0,-1,73.137,72.826)" stroke-width=".79701" stroke-linecap="butt" stroke-dasharray="2.98883,2.98883" stroke-miterlimit="10" stroke-linejoin="miter" fill="none" stroke="#000000" d="M-5.22363 43.06384C-17.97946 65.15807 17.97946 65.15807 7.18674 46.46408"/>
<path transform="matrix(-.49998,.86601,.86601,.49998,81.44938,24.412236)" d="M4.78288 0 1.28693 1.32402 2.45058 0 1.28693-1.32402Z"/>
<path transform="matrix(-.49998,.86601,.86601,.49998,81.44938,24.412236)" stroke-width=".79701" stroke-linecap="butt" stroke-linejoin="round" fill="none" stroke="#000000" d="M4.78288 0 1.28693 1.32402 2.45058 0 1.28693-1.32402Z"/>
<text xml:space="preserve" transform="matrix(1 0 -0 1 .0000076293949 131.885)" font-size="9.9626" font-family="Computer Modern" font-style="italic"><tspan y="-124.275" x="68.27">a</tspan></text>
<text xml:space="preserve" transform="matrix(1 0 -0 1 .0000076293949 131.885)" font-size="6.9738" font-family="Computer Modern"><tspan y="-122.781" x="73.535999">1</tspan></text>
<path transform="matrix(1,0,0,-1,73.137,72.826)" stroke-width=".79701" stroke-linecap="butt" stroke-dasharray="2.98883,2.98883" stroke-miterlimit="10" stroke-linejoin="miter" fill="none" stroke="#000000" d=""/>
<path transform="matrix(1,0,0,-1,73.137,72.826)" stroke-width=".79701" stroke-linecap="butt" stroke-dasharray="2.98883,2.98883" stroke-miterlimit="10" stroke-linejoin="miter" fill="none" stroke="#000000" d="M37.57487 19.55928C50.3307 41.6535 68.3108 10.51152 46.72519 10.51152"/>
<path transform="matrix(-1,-0,0,1,122.113529,62.314477)" d="M4.78288 0 1.28693 1.32402 2.45058 0 1.28693-1.32402Z"/>
<path transform="matrix(-1,-0,0,1,122.113529,62.314477)" stroke-width=".79701" stroke-linecap="butt" stroke-linejoin="round" fill="none" stroke="#000000" d="M4.78288 0 1.28693 1.32402 2.45058 0 1.28693-1.32402Z"/>
<text xml:space="preserve" transform="matrix(1 0 -0 1 0 131.885)" font-size="9.9626" font-family="Computer Modern" font-style="italic"><tspan y="-78.094" x="133.219">a</tspan></text>
<text xml:space="preserve" transform="matrix(1 0 -0 1 0 131.885)" font-size="6.9738" font-family="Computer Modern"><tspan y="-76.6" x="138.485">1</tspan></text>
<path transform="matrix(1,0,0,-1,73.137,72.826)" stroke-width=".79701" stroke-linecap="butt" stroke-dasharray="2.98883,2.98883" stroke-miterlimit="10" stroke-linejoin="miter" fill="none" stroke="#000000" d=""/>
<path transform="matrix(1,0,0,-1,73.137,72.826)" stroke-width=".79701" stroke-linecap="butt" stroke-dasharray="2.98883,2.98883" stroke-miterlimit="10" stroke-linejoin="miter" fill="none" stroke="#000000" d="M30.44168-27.51935C55.95364-27.51935 37.97353-58.66133 27.18082-39.96735"/>
<path transform="matrix(-.49998,-.86601,-.86601,.49998,101.44344,114.74304)" d="M4.78288 0 1.28693 1.32402 2.45058 0 1.28693-1.32402Z"/>
<path transform="matrix(-.49998,-.86601,-.86601,.49998,101.44344,114.74304)" stroke-width=".79701" stroke-linecap="butt" stroke-linejoin="round" fill="none" stroke="#000000" d="M4.78288 0 1.28693 1.32402 2.45058 0 1.28693-1.32402Z"/>
<text xml:space="preserve" transform="matrix(1 0 -0 1 0 131.885)" font-size="9.9626" font-family="Computer Modern" font-style="italic"><tspan y="-14.552" x="118.027">a</tspan></text>
<text xml:space="preserve" transform="matrix(1 0 -0 1 0 131.885)" font-size="6.9738" font-family="Computer Modern"><tspan y="-13.057" x="123.293">1</tspan></text>
<path transform="matrix(1,0,0,-1,73.137,72.826)" stroke-width=".79701" stroke-linecap="butt" stroke-dasharray="2.98883,2.98883" stroke-miterlimit="10" stroke-linejoin="miter" fill="none" stroke="#000000" d=""/>
<path transform="matrix(1,0,0,-1,73.137,72.826)" stroke-width=".79701" stroke-linecap="butt" stroke-dasharray="2.98883,2.98883" stroke-miterlimit="10" stroke-linejoin="miter" fill="none" stroke="#000000" d="M-25.2177-36.56711C-37.97353-58.66133-55.95364-27.51935-34.36801-27.51935"/>
<path transform="matrix(1,0,0,-1,36.51765,100.345348)" d="M4.78288 0 1.28693 1.32402 2.45058 0 1.28693-1.32402Z"/>
<path transform="matrix(1,0,0,-1,36.51765,100.345348)" stroke-width=".79701" stroke-linecap="butt" stroke-linejoin="round" fill="none" stroke="#000000" d="M4.78288 0 1.28693 1.32402 2.45058 0 1.28693-1.32402Z"/>
<text xml:space="preserve" transform="matrix(1 0 -0 1 .0000019073487 131.885)" font-size="9.9626" font-family="Computer Modern" font-style="italic"><tspan y="-14.552" x="18.512">a</tspan></text>
<text xml:space="preserve" transform="matrix(1 0 -0 1 .0000019073487 131.885)" font-size="6.9738" font-family="Computer Modern"><tspan y="-13.057" x="23.778">1</tspan></text>
<path transform="matrix(1,0,0,-1,73.137,72.826)" stroke-width=".79701" stroke-linecap="butt" stroke-dasharray="2.98883,2.98883" stroke-miterlimit="10" stroke-linejoin="miter" fill="none" stroke="#000000" d=""/>
<path transform="matrix(1,0,0,-1,73.137,72.826)" stroke-width=".79701" stroke-linecap="butt" stroke-dasharray="2.98883,2.98883" stroke-miterlimit="10" stroke-linejoin="miter" fill="none" stroke="#000000" d="M-42.79886 10.51152C-68.3108 10.51152-50.3307 41.6535-39.53798 22.95952"/>
<path transform="matrix(.49998,.86601,.86601,-.49998,32.4734,47.916788)" d="M4.78288 0 1.28693 1.32402 2.45058 0 1.28693-1.32402Z"/>
<path transform="matrix(.49998,.86601,.86601,-.49998,32.4734,47.916788)" stroke-width=".79701" stroke-linecap="butt" stroke-linejoin="round" fill="none" stroke="#000000" d="M4.78288 0 1.28693 1.32402 2.45058 0 1.28693-1.32402Z"/>
<text xml:space="preserve" transform="matrix(1 0 -0 1 -.0000009536743 131.885)" font-size="9.9626" font-family="Computer Modern" font-style="italic"><tspan y="-78.094" x="3.321">a</tspan></text>
<text xml:space="preserve" transform="matrix(1 0 -0 1 -.0000009536743 131.885)" font-size="6.9738" font-family="Computer Modern"><tspan y="-76.6" x="8.587">1</tspan></text>
</svg>
